# xmcd
#
# Track frame offsets:
#	150
#	17997
#	40664
#	63000
#	82518
#	104001
#
# Disc length: 1623 seconds
#
# Revision: 1
# Processed by: cddbd v1.5.1PL0 Copyright (c) Steve Scherf et al.
# Submitted via: CDex 1.50Beta5
#
DISCID=3b065506
DTITLE=吉川晃司 - Katana Fish
DYEAR=2003
DGENRE=Pop
TTITLE0=Katana Fish
TTITLE1=BOMBERS〜20th Year's Eve Mix〜
TTITLE2=ブラック サンタクロース
TTITLE3=VENUS〜迷い子の未来〜20th Year's Eve Mix〜
TTITLE4=SOLITUDE〜20th Year's Eve Mix〜
TTITLE5=Katana FISH〜Studio Live Mix〜
EXTD=
EXTT0=
EXTT1=
EXTT2=
EXTT3=
EXTT4=
EXTT5=
PLAYORDER=
